<svg width="444" height="567" viewBox="0 0 444 567" fill="none" xmlns="http://www.w3.org/2000/svg">
<path d="M5 0V10M387 130V480H5V10M387 130H281V10M387 130L334 70M281 10H5M281 10L334 70M334 70H439V562H61V492" stroke="black" stroke-width="10"/>
<path d="M59 183H309M59 249H309M59 315H309M59 379H161" stroke="black" stroke-width="10"/>
<path d="M66.5852 158V70.7273H101.017C107.608 70.7273 113.233 71.9062 117.892 74.2642C122.58 76.5937 126.145 79.9034 128.588 84.1932C131.06 88.4545 132.295 93.4687 132.295 99.2358C132.295 105.031 131.045 110.017 128.545 114.193C126.045 118.341 122.423 121.523 117.679 123.739C112.963 125.955 107.253 127.062 100.548 127.062H77.4943V112.233H97.5653C101.088 112.233 104.014 111.75 106.344 110.784C108.673 109.818 110.406 108.369 111.543 106.438C112.707 104.506 113.29 102.105 113.29 99.2358C113.29 96.3381 112.707 93.8949 111.543 91.9062C110.406 89.9176 108.659 88.4119 106.301 87.3892C103.972 86.3381 101.031 85.8125 97.4801 85.8125H85.0369V158H66.5852ZM113.716 118.284L135.406 158H115.037L93.8153 118.284H113.716Z" fill="black"/>
</svg>
