<svg width="131" height="127" viewBox="0 0 131 127" fill="none" xmlns="http://www.w3.org/2000/svg">
<path d="M19.125 46.7757V89.325C19.125 100.456 19.125 106.022 21.2912 110.273C23.1967 114.013 26.2372 117.053 29.9769 118.959C30.9767 119.468 32.0492 119.858 33.2496 120.156M33.2496 120.156C36.6824 105.522 49.8187 94.625 65.5 94.625C81.1814 94.625 94.3174 105.522 97.7505 120.156M33.2496 120.156C37.1538 121.125 42.4115 121.125 50.925 121.125H80.075C88.5881 121.125 93.8464 121.125 97.7505 120.156M125.125 61.5L89.1301 21.5114C80.9435 12.4168 76.8506 7.86958 72.0296 6.1908C67.7962 4.71634 63.1879 4.71667 58.9538 6.1918C54.1335 7.87123 50.0413 12.4192 41.8563 21.515L5.875 61.5M111.875 15.1251V89.325C111.875 100.456 111.875 106.022 109.709 110.273C107.803 114.013 104.763 117.053 101.023 118.959C100.024 119.468 98.951 119.858 97.7505 120.156M78.75 61.5C78.75 68.818 72.818 74.75 65.5 74.75C58.182 74.75 52.25 68.818 52.25 61.5C52.25 54.182 58.182 48.25 65.5 48.25C72.818 48.25 78.75 54.182 78.75 61.5Z" stroke="black" stroke-width="10" stroke-linecap="round" stroke-linejoin="round"/>
</svg>
