<svg width="92" height="118" viewBox="0 0 92 118" fill="none" xmlns="http://www.w3.org/2000/svg">
<path d="M23.1074 0.531097C23.2066 0.684042 23.3489 0.904139 23.5225 1.17172C23.8696 1.70691 24.3405 2.43317 24.8359 3.19711L27.3076 7.00864L39.2861 25.4764C39.3215 25.531 39.3578 25.6376 39.3477 25.8329C39.3375 26.0274 39.282 26.2755 39.1738 26.5741C38.9573 27.1717 38.5568 27.8954 38.0332 28.6571C37.0512 30.0856 35.6942 31.5686 34.4922 32.5125L34.2539 32.6942C32.5666 33.9378 30.075 34.7822 27.959 35.3163C26.9093 35.5812 25.9677 35.7662 25.2891 35.8846C24.95 35.9438 24.6767 35.9859 24.4893 36.0135C24.3955 36.0273 24.3229 36.0372 24.2744 36.0438C24.2503 36.0471 24.2317 36.05 24.2197 36.0516C24.2141 36.0523 24.2098 36.0522 24.207 36.0526C24.2058 36.0527 24.2047 36.0535 24.2041 36.0536H24.2031L24.0762 36.0692L23.9717 36.1444C22.6035 37.1354 22.0618 38.3798 21.8711 39.9881C21.7332 41.1518 21.7757 42.5611 21.8174 44.2381L21.8516 46.0057C21.8873 49.2156 23.1338 53.1145 24.9199 57.1248C26.7115 61.1474 29.0709 65.3359 31.3809 69.1375L31.3887 69.1493L31.3965 69.162C33.9256 72.8215 36.7873 76.6835 39.7295 79.9598C42.4793 83.0219 45.3333 85.6108 48.082 87.0282L48.6309 87.2957C50.8819 88.3317 52.6419 89.2683 54.1338 89.7332C55.68 90.215 57.0373 90.2268 58.5 89.3817L58.6104 89.3172L58.6768 89.2079L58.6777 89.2069L58.6787 89.2049C58.6802 89.2025 58.6824 89.1983 58.6855 89.1932C58.6919 89.1829 58.702 89.1671 58.7148 89.1463C58.7406 89.1047 58.7793 89.0427 58.8301 88.9627C58.9317 88.8029 59.0822 88.5713 59.2744 88.286C59.6592 87.7146 60.2119 86.9303 60.8818 86.0799C62.148 84.4728 63.7978 82.6753 65.502 81.6053L65.8438 81.4012C67.2035 80.6311 69.2527 79.9315 71.0713 79.5965C71.9802 79.4291 72.8036 79.3581 73.4375 79.4041C73.7545 79.4272 74.0038 79.4786 74.1855 79.5487C74.3225 79.6015 74.4027 79.658 74.4492 79.7059L74.4854 79.7498L86.4629 98.2186C86.8548 98.8229 87.9446 100.502 88.9355 102.03C89.4309 102.794 89.902 103.52 90.249 104.056C90.4224 104.323 90.5649 104.542 90.6641 104.695C90.6705 104.705 90.6766 104.715 90.6826 104.724C90.6354 104.825 90.5623 104.966 90.4502 105.149C90.2597 105.46 89.9931 105.849 89.6611 106.295C88.9979 107.186 88.0917 108.287 87.0645 109.434C85.1305 111.594 82.8021 113.874 80.877 115.215L80.498 115.471C76.6237 117.983 70.8573 118.025 64.6025 116.35C58.5654 114.734 52.1798 111.544 46.835 107.623L46.3213 107.241C38.0759 101.041 27.3308 90.4547 19.3896 78.578L18.6299 77.4247C10.3855 64.713 5.39015 51.235 2.92871 40.9647L2.69922 39.9803C1.18126 33.3371 0.819115 25.9438 1.83691 19.5731C2.82652 13.379 5.10026 8.26115 8.76367 5.66293L9.12305 5.41977C11.1154 4.12763 14.3679 2.8297 17.3125 1.88559C18.7789 1.41545 20.154 1.03789 21.2383 0.795746C21.7811 0.674532 22.2447 0.587899 22.6064 0.540863C22.8188 0.513274 22.977 0.50298 23.0879 0.500824C23.0942 0.510587 23.1007 0.520711 23.1074 0.531097Z" fill="black" stroke="black"/>
</svg>
